<svg width="90" height="40" viewBox="0 0 90 40" fill="none" xmlns="http://www.w3.org/2000/svg">
<rect width="40" height="40" fill="#FF0000"/>
<rect x="50" width="40" height="40" fill="#FF0000"/>
<path d="M63.7246 17V7.29297H64.8867V17H63.7246ZM58.707 17V7.29297H59.8691V17H58.707ZM59.001 12.7002V11.6338H64.627V12.7002H59.001ZM66.2607 17L69.1797 7.29297H70.8203L73.7393 17H72.5566L70.0547 8.27734H69.9453L67.4434 17H66.2607ZM67.5049 14.5186V13.4521H72.4268V14.5186H67.5049ZM75.25 17V7.29297H76.4121V17H75.25ZM75.25 17V15.9268H81.5664V17H75.25ZM61.2158 33V23.293H62.3779V33H61.2158ZM58.2969 24.3662V23.293H65.2969V24.3662H58.2969ZM69.5557 29.7803L66.124 23.293H67.375L69.9521 28.3857H70.0479L72.625 23.293H73.876L70.4443 29.7803H69.5557ZM69.4189 33V28.4678H70.5811V33H69.4189ZM78.2031 33.1367C75.8516 33.1367 74.6758 31.4961 74.6758 28.2148C74.6758 24.8424 75.8516 23.1562 78.2031 23.1562C80.5547 23.1562 81.7305 24.8424 81.7305 28.2148C81.7305 31.4961 80.5547 33.1367 78.2031 33.1367ZM78.2031 32.0908C79.7572 32.0908 80.5342 30.7988 80.5342 28.2148C80.5342 25.5397 79.7572 24.2021 78.2031 24.2021C76.6491 24.2021 75.8721 25.5397 75.8721 28.2148C75.8721 30.7988 76.6491 32.0908 78.2031 32.0908Z" fill="white"/>
<path d="M9.5 10.37H16.514V11.42H9.5V10.37ZM8.044 13.576V12.526H18.348L13.266 18.728H11.852L16.08 13.576H8.044ZM13.07 6.562L18.922 10.202V11.49L13.056 7.836L7.092 11.546V10.286L13.07 6.562ZM21.708 7.29H32.334V18.504H21.708V7.29ZM31.242 11.966V8.354H27.392V11.966H31.242ZM26.3 8.354H22.772V11.966H26.3V8.354ZM22.772 13.058V17.44H26.3V13.058H22.772ZM27.392 17.44H31.242V13.058H27.392V17.44ZM18.922 23.32H13.056L12.524 24.566H17.858V32.728H16.808V30.222H13.042V32.728H12.006V25.812L10.9 28.43H9.766L11.908 23.32H10.228V22.312H12.342L12.986 20.758H14.134L13.476 22.312H18.922V23.32ZM13.042 29.186H16.808V27.912H13.042V29.186ZM16.808 25.616H13.042V26.876H16.808V25.616ZM10.69 20.758L9.346 23.936V32.728H8.324V26.4L8.198 26.68H7.064L9.542 20.758H10.69ZM24.788 28.178H23.71L23.472 27.772V32.728H22.45V28.416L21.092 30.642V28.752L22.45 26.512V24.104H21.092V23.096H22.45V20.758H23.472V23.096H24.452V24.104H23.472V26.022L24.788 28.178ZM29.072 26.134H30.08L30.738 29.214H29.73L29.072 26.134ZM28.778 28.822L28.134 30.502L29.156 30.222V31.272L24.424 32.546V31.496L25.74 31.146L24.942 29.018H26.006L26.706 30.88L26.93 30.824L27.686 28.822H28.778ZM26.342 23.964V22.97H24.522V22.018H26.342V20.758H27.378V22.018H29.198V22.97H27.378V23.964H28.904V24.916H24.816V23.964H26.342ZM28.722 28.64H24.9V25.294H28.722V28.64ZM25.894 26.218V27.702H27.728V26.218H25.894ZM32.922 23.488V24.496H32.166V32.728H31.158V24.496H29.072V23.488H31.158V20.758H32.166V23.488H32.922Z" fill="white"/>
</svg>
